<svg width="72" height="15" viewBox="0 0 72 15" fill="none" xmlns="http://www.w3.org/2000/svg">
<path d="M63.3457 14.4353C63.7362 14.8256 64.3693 14.8257 64.7598 14.4353L71.124 8.07106C71.5143 7.68058 71.5143 7.04748 71.124 6.657L64.7598 0.292741C64.3693 -0.0975962 63.7362 -0.0975754 63.3457 0.292741C62.9552 0.683221 62.9553 1.31627 63.3457 1.7068L68.0029 6.36403L1 6.36402C0.447716 6.36402 6.92067e-07 6.81174 6.43784e-07 7.36402C5.95502e-07 7.91631 0.447716 8.36402 1 8.36402L68.0029 8.36403L63.3457 13.0213C62.9553 13.4118 62.9552 14.0448 63.3457 14.4353Z" fill="white"/>
</svg>
