<svg width="235" height="153" viewBox="0 0 235 153" fill="none" xmlns="http://www.w3.org/2000/svg">
<path d="M-0.00039053 71V-3.8147e-06H31.0996C36.2996 -3.8147e-06 40.7996 0.866664 44.5996 2.6C48.3996 4.33333 51.3329 6.8 53.3996 10C55.5329 13.1333 56.5996 16.8667 56.5996 21.2C56.5996 25.5333 55.4329 29.2 53.0996 32.2C50.8329 35.2 47.8329 37.2667 44.0996 38.4C51.0996 39.4 54.8996 43.4667 55.4996 50.6L57.2996 71H41.7996L40.4996 53C40.2996 50.2667 39.4329 48.2667 37.8996 47C36.4329 45.6667 33.8996 45 30.2996 45H15.1996V71H-0.00039053ZM15.1996 32.3H29.3996C33.0663 32.3 35.8996 31.4667 37.8996 29.8C39.9663 28.0667 40.9996 25.6333 40.9996 22.5C40.9996 19.3 39.9663 16.9 37.8996 15.3C35.8329 13.6333 32.8329 12.8 28.8996 12.8H15.1996V32.3ZM91.4684 72.2C86.0017 72.2 81.235 71.0667 77.1684 68.8C73.1017 66.4667 69.935 63.2 67.6684 59C65.4017 54.8 64.2684 49.8667 64.2684 44.2C64.2684 38.5333 65.4017 33.6333 67.6684 29.5C69.935 25.3 73.1017 22.0333 77.1684 19.7C81.235 17.3667 86.0017 16.2 91.4684 16.2C96.935 16.2 101.702 17.3667 105.768 19.7C109.902 22.0333 113.068 25.3 115.268 29.5C117.535 33.6333 118.668 38.5333 118.668 44.2C118.668 49.8667 117.535 54.8 115.268 59C113.068 63.2 109.902 66.4667 105.768 68.8C101.702 71.0667 96.935 72.2 91.4684 72.2ZM91.4684 60.7C95.2017 60.7 98.1017 59.2667 100.168 56.4C102.235 53.4667 103.268 49.4 103.268 44.2C103.268 39 102.235 34.9667 100.168 32.1C98.1017 29.1667 95.2017 27.7 91.4684 27.7C87.735 27.7 84.835 29.1667 82.7684 32.1C80.7017 34.9667 79.6684 39 79.6684 44.2C79.6684 49.4 80.7017 53.4667 82.7684 56.4C84.835 59.2667 87.735 60.7 91.4684 60.7ZM150.908 72.2C142.242 72.2 135.875 70.5 131.808 67.1C127.742 63.7 125.508 59.3667 125.108 54.1L140.308 53.6C140.775 56.1333 141.808 58.1 143.408 59.5C145.008 60.9 147.508 61.6 150.908 61.6C156.442 61.6 159.208 59.8 159.208 56.2C159.208 55.0667 158.942 54.1333 158.408 53.4C157.875 52.6667 156.842 52.0333 155.308 51.5C153.775 50.9 151.508 50.3667 148.508 49.9C142.908 48.9 138.508 47.7333 135.308 46.4C132.175 45 129.942 43.2667 128.608 41.2C127.342 39.0667 126.708 36.4667 126.708 33.4C126.708 28.2667 128.708 24.1333 132.708 21C136.708 17.8 142.675 16.2 150.608 16.2C155.942 16.2 160.342 17 163.808 18.6C167.275 20.2 169.875 22.4 171.608 25.2C173.408 28 174.442 31.1333 174.708 34.6L159.708 35.2C159.575 32.7333 158.742 30.7333 157.208 29.2C155.742 27.6 153.475 26.8 150.408 26.8C147.742 26.8 145.708 27.3667 144.308 28.5C142.908 29.5667 142.208 31 142.208 32.8C142.208 34.7333 142.875 36.2 144.208 37.2C145.608 38.1333 148.142 38.8667 151.808 39.4C157.475 40.2667 161.975 41.4 165.308 42.8C168.642 44.2 171.008 45.9667 172.408 48.1C173.875 50.2333 174.608 52.8667 174.608 56C174.608 61.2 172.475 65.2 168.208 68C163.942 70.8 158.175 72.2 150.908 72.2ZM208.163 72.2C202.696 72.2 197.93 71.0333 193.863 68.7C189.863 66.3667 186.73 63.1333 184.463 59C182.263 54.8 181.163 49.8667 181.163 44.2C181.163 38.6 182.263 33.7 184.463 29.5C186.663 25.3 189.763 22.0333 193.763 19.7C197.83 17.3667 202.596 16.2 208.063 16.2C213.396 16.2 218.03 17.3667 221.963 19.7C225.896 22.0333 228.93 25.3667 231.063 29.7C233.263 34.0333 234.363 39.2 234.363 45.2V48.2H196.663C196.863 52.4667 197.996 55.6333 200.063 57.7C202.196 59.7667 204.996 60.8 208.463 60.8C213.663 60.8 216.996 58.6333 218.463 54.3L233.563 55.2C232.096 60.5333 229.096 64.7 224.563 67.7C220.096 70.7 214.63 72.2 208.163 72.2ZM196.663 39H218.963C218.763 35.0667 217.663 32.1333 215.663 30.2C213.73 28.2667 211.196 27.3 208.063 27.3C204.93 27.3 202.33 28.3333 200.263 30.4C198.263 32.4 197.063 35.2667 196.663 39ZM-0.00039053 151V80H15.1996V138.2H47.8996V151H-0.00039053ZM73.9863 152.2C68.3863 152.2 63.853 150.933 60.3863 148.4C56.9197 145.8 55.1863 142.2 55.1863 137.6C55.1863 132.867 56.653 129.233 59.5863 126.7C62.5863 124.1 66.9863 122.2 72.7863 121L90.0863 117.6C90.0863 110.6 87.053 107.1 80.9863 107.1C75.453 107.1 72.1863 109.667 71.1863 114.8L56.0863 114.1C57.0863 108.233 59.7197 103.8 63.9863 100.8C68.3197 97.7333 73.9863 96.2 80.9863 96.2C88.9863 96.2 94.9863 98.1333 98.9863 102C103.053 105.8 105.086 111.333 105.086 118.6V136.9C105.086 138.433 105.32 139.467 105.786 140C106.32 140.467 107.086 140.7 108.086 140.7H109.586V151C109.12 151.133 108.353 151.267 107.286 151.4C106.286 151.533 105.286 151.6 104.286 151.6C101.486 151.6 98.9863 151 96.7863 149.8C94.5863 148.533 93.153 146.2 92.4863 142.8C91.153 145.667 88.8863 147.967 85.6863 149.7C82.4863 151.367 78.5863 152.2 73.9863 152.2ZM77.5863 141.9C81.3197 141.9 84.3197 140.8 86.5863 138.6C88.9197 136.4 90.0863 133.4 90.0863 129.6V127L77.8863 129.6C73.0197 130.533 70.5863 132.733 70.5863 136.2C70.5863 140 72.9197 141.9 77.5863 141.9ZM117.461 151V97.4H130.961L131.261 106.1C132.595 102.967 134.528 100.533 137.061 98.8C139.661 97.0667 142.595 96.2 145.861 96.2C149.728 96.2 152.961 97.2 155.561 99.2C158.161 101.133 160.028 103.767 161.161 107.1C162.428 103.567 164.361 100.867 166.961 99C169.628 97.1333 172.728 96.2 176.261 96.2C181.728 96.2 186.095 97.9333 189.361 101.4C192.628 104.867 194.261 109.9 194.261 116.5V151H179.261V120.7C179.261 112.3 176.561 108.1 171.161 108.1C168.428 108.1 166.295 109.233 164.761 111.5C163.295 113.7 162.561 116.833 162.561 120.9V151H149.061V120.9C149.061 116.767 148.461 113.6 147.261 111.4C146.061 109.2 143.995 108.1 141.061 108.1C138.328 108.1 136.195 109.233 134.661 111.5C133.195 113.767 132.461 116.9 132.461 120.9V151H117.461Z" fill="white"/>
</svg>
